<svg width="100" height="100" viewBox="0 0 100 100" fill="none" xmlns="http://www.w3.org/2000/svg">
<path opacity="0.3" d="M50 10C27.9 10 10 27.9 10 50C10 59.75 13.5 68.65 19.3 75.6C27.75 69 38.4 65 50 65C61.6 65 72.25 69 80.7 75.6C86.5 68.65 90 59.75 90 50C90 27.9 72.1 10 50 10ZM50 55C40.35 55 32.5 47.15 32.5 37.5C32.5 27.85 40.35 20 50 20C59.65 20 67.5 27.85 67.5 37.5C67.5 47.15 59.65 55 50 55Z" fill="#2C98F0"/>
<path d="M50 0C22.4 0 0 22.4 0 50C0 77.6 22.4 100 50 100C77.6 100 100 77.6 100 50C100 22.4 77.6 0 50 0ZM50 90C41.3 90 33.3 87.2 26.75 82.5C33.3 77.8 41.3 75 50 75C58.7 75 66.7 77.8 73.25 82.5C66.7 87.2 58.7 90 50 90ZM80.7 75.6C72.25 69 61.6 65 50 65C38.4 65 27.75 69 19.3 75.6C13.5 68.65 10 59.75 10 50C10 27.9 27.9 10 50 10C72.1 10 90 27.9 90 50C90 59.75 86.5 68.65 80.7 75.6Z" fill="#2C98F0"/>
<path d="M50 19.65C40.35 19.65 32.5 27.5 32.5 37.15C32.5 46.8 40.35 54.65 50 54.65C59.65 54.65 67.5 46.8 67.5 37.15C67.5 27.5 59.65 19.65 50 19.65ZM50 44.65C45.85 44.65 42.5 41.3 42.5 37.15C42.5 33 45.85 29.65 50 29.65C54.15 29.65 57.5 33 57.5 37.15C57.5 41.3 54.15 44.65 50 44.65Z" fill="#2C98F0"/>
</svg>
